<?xml version="1.0" standalone="no"?>
<!DOCTYPE svg PUBLIC "-//W3C//DTD SVG 20010904//EN"
 "http://www.w3.org/TR/2001/REC-SVG-20010904/DTD/svg10.dtd">
<svg version="1.0" xmlns="http://www.w3.org/2000/svg"
 width="591.000000pt" height="591.000000pt" viewBox="0 0 591.000000 591.000000"
 preserveAspectRatio="xMidYMid meet">
<metadata>
Created by potrace 1.14, written by Peter Selinger 2001-2017
</metadata>
<g transform="translate(0.000000,591.000000) scale(0.100000,-0.100000)"
fill="#000000" stroke="none">
<path d="M2903 4905 c-24 -7 -76 -34 -117 -59 -192 -120 -264 -139 -521 -140
-180 -1 -204 -3 -245 -22 -59 -27 -108 -83 -159 -180 -97 -186 -204 -291 -391
-383 -123 -60 -175 -104 -208 -174 -16 -35 -20 -71 -25 -217 -7 -246 -34 -333
-157 -520 -81 -122 -98 -182 -81 -275 11 -58 28 -97 71 -160 51 -74 92 -168
116 -264 23 -87 25 -112 22 -271 -3 -173 -3 -176 24 -226 35 -67 84 -109 194
-167 171 -91 269 -193 365 -380 66 -129 100 -170 174 -206 45 -22 62 -24 219
-27 240 -3 318 -26 514 -155 123 -81 181 -98 281 -81 41 7 82 22 115 43 215
137 332 171 551 163 170 -7 152 -7 197 4 94 24 145 76 239 246 84 150 209 261
402 356 92 45 131 81 169 153 20 38 23 57 24 197 0 85 7 182 14 215 20 97 67
207 126 295 77 116 95 155 101 221 7 76 -11 147 -57 218 -117 181 -159 316
-153 491 7 211 6 226 -19 282 -29 61 -74 109 -138 145 -154 88 -191 113 -248
167 -84 81 -119 129 -186 263 -59 117 -93 155 -169 195 -38 20 -58 22 -207 24
-242 2 -347 33 -536 162 -119 81 -201 99 -301 67z m-713 -1755 l0 -570 325 0
325 0 0 -75 0 -75 -415 0 -415 0 0 645 0 645 90 0 90 0 0 -570z m1051 35 c99
-291 182 -537 185 -545 4 -8 88 230 188 530 l182 545 97 3 c58 2 97 -1 97 -7
0 -5 -57 -164 -126 -353 -69 -189 -173 -475 -231 -635 l-106 -293 -96 0 -97 0
-232 638 c-128 350 -232 641 -232 645 0 4 43 6 96 5 l97 -3 178 -530z"/>
</g>
</svg>
